<svg width="24" height="25" viewBox="0 0 24 25" fill="none" xmlns="http://www.w3.org/2000/svg">
<rect y="0.818359" width="24" height="24" rx="12" fill="#FF8000"/>
<path d="M11.064 11.6024L13.464 8.21036C13.8907 7.60236 14.3547 7.26103 14.856 7.18636C15.3573 7.10103 15.8107 7.21836 16.216 7.53836C16.4827 7.74103 16.6587 8.01303 16.744 8.35436C16.8293 8.69569 16.8027 9.05836 16.664 9.44236C16.5253 9.82636 16.248 10.189 15.832 10.5304L13.16 12.6904V13.0264C13.5013 13.0264 13.9013 13.069 14.36 13.1544C14.8187 13.2397 15.2347 13.4317 15.608 13.7304C15.9067 13.9544 16.1627 14.2104 16.376 14.4984C16.6 14.7864 16.776 15.1437 16.904 15.5704C17.032 15.9864 17.096 16.5144 17.096 17.1544C17.096 17.677 16.952 18.0984 16.664 18.4184C16.3867 18.7277 15.9707 18.8824 15.416 18.8824C14.8613 18.8824 14.4347 18.7277 14.136 18.4184C13.848 18.0984 13.704 17.677 13.704 17.1544C13.704 16.5677 13.608 16.1037 13.416 15.7624C13.2347 15.4104 12.9893 15.1544 12.68 14.9944C12.3707 14.8344 12.0347 14.7544 11.672 14.7544H10.888V17.2664C10.888 17.725 10.728 18.1037 10.408 18.4024C10.0987 18.701 9.69867 18.8504 9.208 18.8504C8.71733 18.8504 8.312 18.701 7.992 18.4024C7.68267 18.1037 7.528 17.725 7.528 17.2664V8.80236C7.528 8.33303 7.68267 7.93836 7.992 7.61836C8.30133 7.29836 8.70667 7.13836 9.208 7.13836C9.74133 7.13836 10.152 7.29836 10.44 7.61836C10.7387 7.92769 10.888 8.31169 10.888 8.77036V11.5704L11.064 11.6024Z" fill="#F2F9FF"/>
</svg>
